<?xml version="1.0" standalone="no"?><!DOCTYPE svg PUBLIC "-//W3C//DTD SVG 1.1//EN" "http://www.w3.org/Graphics/SVG/1.1/DTD/svg11.dtd"><svg class="icon" width="200px" height="196.36px" viewBox="0 0 1043 1024" version="1.1" xmlns="http://www.w3.org/2000/svg"><path d="M494.561347 214.698892l67.096207 19.122582L342.738646 1001.917291l-67.096207-19.122582z" fill="#F0F0FF" /><path d="M342.779419 1018.218375c-1.480063 0-2.984591-0.203865-4.476886-0.627906l-67.096207-19.118504a16.313316 16.313316 0 0 1-11.216679-20.154142L478.908555 210.226084a16.309238 16.309238 0 0 1 20.158219-11.212602l67.096207 19.122582a16.309238 16.309238 0 0 1 11.212601 20.154142L358.452597 1006.377868a16.309238 16.309238 0 0 1-15.673178 11.840507z m-46.95022-46.648499l35.725387 10.181042 209.981445-736.72092-35.725387-10.185119-209.981445 736.724997z" fill="#6E6E96" /><path d="M766.770691 982.782477L699.66633 1001.917291 480.661798 233.792933l67.100285-19.130737z" fill="#F0F0FF" /><path d="M699.698948 1018.202066a16.317393 16.317393 0 0 1-15.677255-11.840507L465.017161 238.257587a16.301084 16.301084 0 0 1 11.212602-20.154141l67.096207-19.12666a16.309238 16.309238 0 0 1 20.154141 11.212602l219.000454 768.103971a16.280697 16.280697 0 0 1-1.435213 12.399099 16.297007 16.297007 0 0 1-9.777388 7.755043l-67.09213 19.126659a16.211383 16.211383 0 0 1-4.476886 0.627906zM500.856713 245.001457l210.062991 736.733152 35.725387-10.18512-210.058914-736.733151-35.729464 10.185119z" fill="#6E6E96" /><path d="M484.47816 30.388189h69.750536v914.907504h-69.750536z" fill="#F0F0FF" /><path d="M554.232773 961.604931h-69.750536a16.309238 16.309238 0 0 1-16.309238-16.309238V30.388189a16.309238 16.309238 0 0 1 16.309238-16.309239h69.750536a16.309238 16.309238 0 0 1 16.309238 16.309239v914.907504a16.309238 16.309238 0 0 1-16.309238 16.309238z m-53.445374-32.618477h37.132058V46.697427h-37.132058v882.289027z" fill="#6E6E96" /><path d="M95.005391 106.593105h851.574654v654.41227H95.005391z" fill="#E3C8BD" /><path d="M903.694903 152.381292v558.974684l-19.721947-14.702778V169.51007zM139.41137 713.700429h759.859652l-16.17061-16.174687-727.538818-0.872544z" fill="#FFFFFF" opacity=".18" /><path d="M946.575968 118.825034H117.84648l-10.60916-12.231929v12.231929h-12.231929v21.94408h12.231929v620.236261l19.036959-24.211064V140.769114h820.301689z" fill="#FFFFFF" opacity=".18" /><path d="M155.561594 169.51007h728.407285v527.143128H155.561594z" fill="#89A8A8" /><path d="M883.968879 712.962436H155.561594a16.309238 16.309238 0 0 1-16.309239-16.309238V169.51007a16.309238 16.309238 0 0 1 16.309239-16.309239h728.407285a16.309238 16.309238 0 0 1 16.309238 16.309239v527.143128a16.309238 16.309238 0 0 1-16.309238 16.309238z m-712.098047-32.618477h695.788808V185.819308H171.870832v494.524651z" fill="#6E6E96" /><path d="M724.5053 648.589872h97.137824v48.063326h-97.137824z" fill="#FFFFFF" /><path d="M821.643124 712.962436h-97.137824a16.309238 16.309238 0 0 1-16.309239-16.309238v-48.063326a16.309238 16.309238 0 0 1 16.309239-16.309238h97.137824a16.309238 16.309238 0 0 1 16.309238 16.309238v48.063326a16.309238 16.309238 0 0 1-16.309238 16.309238z m-80.828586-32.618477h64.519347v-15.444849h-64.519347v15.444849z" fill="#6E6E96" /><path d="M257.89391 483.234581a16.309238 16.309238 0 0 1-15.342916-21.842148l49.078576-136.255533a16.305161 16.305161 0 0 1 14.77617-10.772252 16.394862 16.394862 0 0 1 15.489699 9.712152l60.140317 136.255533a16.305161 16.305161 0 1 1-29.837752 13.16971L308.509632 374.533506l-35.268728 97.916591a16.317393 16.317393 0 0 1-15.346994 10.784484z" fill="#F0F0FF" /><path d="M341.486912 446.30231H277.077652a16.309238 16.309238 0 0 1 0-32.618477h64.40926a16.309238 16.309238 0 0 1 0 32.618477zM426.001386 483.230503a16.309238 16.309238 0 0 1-16.309239-16.309238V330.665732a16.309238 16.309238 0 0 1 32.618477 0v136.255533a16.309238 16.309238 0 0 1-16.309238 16.309238z" fill="#F0F0FF" /><path d="M469.873237 410.393444H425.997308v-32.618476h43.875929c8.823298 0 16.00344-6.906962 16.00344-15.395922 0-8.493036-7.180142-15.399998-16.00344-15.399998H425.997308v-32.618477h43.875929c26.808311 0 48.621917 21.540427 48.621917 48.018475 0 26.473971-21.809529 48.014398-48.621917 48.014398z" fill="#F0F0FF" /><path d="M469.873237 483.234581H425.997308v-32.618477h43.875929a16.023827 16.023827 0 0 0 16.00344-16.007518v-8.195392a16.027904 16.027904 0 0 0-16.00344-16.01975H425.997308v-32.618476h43.875929c26.808311 0 48.621917 21.817684 48.621917 48.638226v8.195392c0 26.812388-21.809529 48.625994-48.621917 48.625995zM639.269142 483.230503h-43.875928c-26.812388 0-48.625994-21.813606-48.625995-48.625994V362.978411c0-26.808311 21.813606-48.621917 48.625995-48.621917h43.875928a16.309238 16.309238 0 0 1 0 32.618477h-43.875928a16.023827 16.023827 0 0 0-16.007518 16.00344v71.626098a16.023827 16.023827 0 0 0 16.007518 16.007517h43.875928a16.309238 16.309238 0 0 1 0 32.618477zM749.075167 483.768708h-43.880006a16.309238 16.309238 0 0 1-16.309238-16.309238V331.19986a16.309238 16.309238 0 0 1 16.309238-16.309239h43.880006c26.808311 0 48.61784 21.813606 48.61784 48.621918v71.634252c0 26.812388-21.809529 48.621917-48.61784 48.621917z m-27.570767-32.618477h27.570767a16.019749 16.019749 0 0 0 15.999363-16.00344V363.512539a16.019749 16.019749 0 0 0-15.999363-16.003441h-27.570767v103.641133z" fill="#F0F0FF" /><path d="M705.994314 565.363828H340.023158a16.309238 16.309238 0 0 1 0-32.618477h365.971156a16.309238 16.309238 0 0 1 0 32.618477z" fill="#F0F0FF" opacity=".45" /><path d="M155.561594 185.819308h728.407285v26.098859H155.561594z" fill="#6E6E96" opacity=".15" /><path d="M905.806949 777.314614H135.778487c-31.47683 0-57.082335-25.605504-57.082334-57.082335V147.366201c0-31.47683 25.605504-57.082335 57.082334-57.082334h770.028462c31.47683 0 57.082335 25.605504 57.082335 57.082334v572.866078c0 31.47683-25.605504 57.082335-57.082335 57.082335zM135.778487 122.902344c-13.491818 0-24.463858 10.97204-24.463857 24.463857v572.866078c0 13.491818 10.97204 24.463858 24.463857 24.463858h770.028462c13.491818 0 24.463858-10.97204 24.463858-24.463858V147.366201c0-13.491818-10.97204-24.463858-24.463858-24.463857H135.778487z" fill="#6E6E96" /><path d="M640.406712 794.072356h72.54757l-9.430818-33.066981h-72.543492z" fill="#6E6E96" opacity=".15" /><path d="M484.47816 761.005375h69.750536v30.514586h-69.750536z" fill="#6E6E96" opacity=".15" /><path d="M724.5053 680.519284h97.137824v16.133914h-97.137824z" fill="#6E6E96" opacity=".15" /><path d="M946.575968 728.639692h-8.154619V106.593105l-21.940003 21.948158v600.098429H95.005391v24.211064h836.027873l7.388085 8.154619v-8.154619h8.154619z" fill="#6E6E96" opacity=".15" /><path d="M137.894611 152.381292h765.800292l-19.721947 17.128778H155.561594z" fill="#6E6E96" opacity=".15" /><path d="M527.147205 791.528115h23.130578v153.767578h-23.130578z" fill="#6E6E96" opacity=".15" /><path d="M336.932557 767.822637l-7.477786 26.249719h45.886043l-56.364728 201.064369 23.782947 6.776489 59.239231-207.840858 7.481863-26.249719z" fill="#6E6E96" opacity=".15" /><path d="M685.958415 794.072356l59.051675 194.879091 21.719828-6.189356-53.775636-188.689735z" fill="#6E6E96" opacity=".15" /></svg>