<?xml version="1.0" standalone="no"?><!DOCTYPE svg PUBLIC "-//W3C//DTD SVG 1.1//EN" "http://www.w3.org/Graphics/SVG/1.1/DTD/svg11.dtd"><svg class="icon" width="200px" height="194.49px" viewBox="0 0 1053 1024" version="1.1" xmlns="http://www.w3.org/2000/svg"><path d="M423.545589 660.715531C-100.674022 449.302764-8.123974 157.044783 103.202756 134.436815c91.600666-18.612121 113.098911 62.74787 113.09891 62.74787S226.668926 247.472433 190.229507 247.472433s-26.31267-67.823903-70.84083-67.823902c-54.65069 0-133.774357 233.062913 249.780488 417.11236l54.376424 63.95464z" fill="#EDB0B0" /><path d="M27.06648 333.48229s74.933725 173.990209 353.689374 283.169224l33.021641 40.068171S115.565829 545.907732 27.06648 333.48229z" fill="#D9A1A1" /><path d="M150.667673 443.117008C26.454655 304.215985 79.45131 179.65697 119.397116 179.65697c44.53238 0 34.40563 67.823903 70.84083 67.823902 36.4352 0 26.076379-50.287749 26.076379-50.287748s-2.008472-7.557087-7.375649-17.527715c0 0 7.61194 24.080566-24.080566 24.080565-31.679847 0-33.76427-83.279854-105.465873-26.346426-76.870465 61.038981 18.207051 233.020718 71.275436 265.71746z" fill="#D9A1A1" /><path d="M629.586959 660.715531c45.186399-18.21549 85.790444-37.068122 122.200327-56.254091 385.917753-203.547659 299.865702-449.366056 198.142506-470.028845-91.592227-18.612121-113.107349 62.74787-113.10735 62.74787s-10.354601 50.287749 26.07216 50.287749 26.30845-67.823903 70.84083-67.823903c54.654909 0 133.770137 233.062913-249.772049 417.11236l-54.376424 63.95886z" fill="#EDB0B0" /><path d="M1024.732712 338.01401s-74.929505 173.977551-353.685154 283.165005l-33.004763 40.068171c0.004219 0.004219 298.203227-110.820392 386.689917-323.233176z" fill="#D9A1A1" /><path d="M901.139958 447.640289c124.225676-138.905243 71.220583-263.455819 31.266338-263.455819-44.52816 0-34.40563 67.819683-70.849269 67.819684-36.418322 0-26.059501-50.287749-26.059501-50.287749s2.012691-7.561306 7.36721-17.519276c0 0-7.599281 24.076346 24.080566 24.076346 31.688286 0 33.76427-83.284073 105.470093-26.342206 76.874685 61.026322-18.211271 233.00806-71.275437 265.70902z" fill="#D9A1A1" /><path d="M417.233248 676.369798c-152.842182-61.638147-266.303967-134.934713-337.233406-217.855912C6.686397 372.803613-3.499425 298.114618 0.863516 250.552653c6.194195-67.528539 46.899507-122.077961 98.980535-132.651976 10.139408-2.059106 20.034085-3.105536 29.401328-3.105536 65.456775 0 96.242093 51.076791 103.373012 78.081456l0.210974 0.902968c0.742628 3.607654 6.79758 35.827595-9.493827 55.815266-5.485322 6.734288-15.683803 14.759737-33.110251 14.759737-28.274728 0-38.912034-23.920225-46.675875-41.388868-8.966393-20.15645-13.464357-26.435035-24.164955-26.435035-4.881937 0-19.312555 11.962222-26.046843 41.574525-14.287155 62.785845 20.48557 125.706713 36.097642 149.837913 46.726509 72.233258 129.837583 137.373572 247.029388 193.606567l3.232121 1.552768 56.701356 66.684643-19.164873 26.582717zM129.245379 148.546752c-7.118261 0-14.751298 0.814359-22.683918 2.43042-31.7347 6.443144-66.680424 43.777093-72.085576 102.65992-4.523281 49.30461 7.822914 214.100575 329.368298 362.921593l-5.219496-6.139341c-121.187651-58.629658-207.813552-127.293237-257.527451-204.146825-51.903809-80.241829-47.760281-144.500272-40.671557-175.661123 9.23222-40.574508 32.924593-67.840781 58.962998-67.840781 34.346558 0 46.781362 27.970925 55.009345 46.47756 7.12248 16.017142 10.405235 21.346343 15.831485 21.346343 5.046497 0 6.375633-1.628719 6.941042-2.324933 4.506403-5.531737 3.991627-20.295693 2.704686-27.152346-1.514793-5.114008-17.038256-52.570487-70.629856-52.570487zM635.8993 676.369798l-19.173312-26.586936 56.701356-66.688863 3.23634-1.552768c117.187586-56.232994 200.302879-121.373308 247.025169-193.606567 15.612072-24.135419 50.380577-87.052068 36.097641-149.842132-6.734288-29.608083-21.164906-41.570305-26.046842-41.570306-10.704818 0-15.207002 6.278584-24.173395 26.443474-7.763841 17.464423-18.396928 41.384648-46.667435 41.384649-17.418009 0-27.616489-8.021229-33.101812-14.755518-16.287188-19.987671-10.244895-52.207612-9.502266-55.815266l0.215193-0.907188c7.135139-27.004665 37.928895-78.081456 103.381451-78.081455 9.371462 0 19.261921 1.046431 29.405548 3.105536 49.410097 10.033921 88.714542 59.355409 97.807519 122.723542 5.822881 40.591386 1.894546 104.980633-49.891117 181.243493-49.232879 72.503305-130.504261 138.960096-241.544066 197.526463-37.983748 20.008769-79.621565 39.177861-123.769972 56.979842z m58.604341-65.954674l-5.173081 6.07605a1199.154786 1199.154786 0 0 0 54.587398-26.966689c106.094576-55.958728 183.264624-118.753012 229.35821-186.631769 45.718053-67.317565 49.380561-122.799492 44.401576-157.483608-8.122497-56.612747-42.557663-88.638592-71.115096-94.436156-7.93684-1.611841-15.565657-2.43042-22.683918-2.430419-53.958695 0-69.034893 46.975458-70.617198 52.494536-1.548549 8.303934-1.485257 22.148044 2.708905 27.249394 0.56541 0.691995 1.890327 2.303835 6.919946 2.303835 5.417811 0 8.700565-5.329202 15.823045-21.342123 8.227984-18.510854 20.667007-46.485998 55.017785-46.485999 26.034184 0 49.730777 27.262053 58.962997 67.840781 7.092944 31.160851 11.236472 95.419294-40.667337 175.661123-49.7139 76.853587-136.33558 145.521386-257.523232 204.151044z" fill="#6E6E96" /><path d="M423.385248 900.504294c7.413624-10.894694 24.270442-19.789356 37.447875-19.789356h132.597122c13.19431 0 30.021592 8.894661 37.447875 19.789356l9.122513 13.367309c7.434722 10.903133 13.506552 28.325361 13.506552 38.730596 0 10.417893-10.801866 18.924363-23.97086 18.924362h-204.821941c-13.168993 0-23.949762-8.523347-23.949762-18.924362s6.067611-27.827463 13.485455-38.730596l9.135171-13.367309z" fill="#CCCCDE" /><path d="M629.540545 988.404477h-204.821941c-22.51092 0-40.827677-16.063556-40.827678-35.802278 0-13.742843 7.054969-34.473142 16.409554-48.224424l9.14783-13.392626c10.52338-15.468609 32.620791-27.152346 51.384813-27.152346h132.597122c18.742925 0 40.840336 11.679517 51.397472 27.165005l9.114074 13.35887c9.379901 13.755501 16.443309 34.49002 16.443309 48.245521 0 19.738722-18.320977 35.802278-40.844555 35.802278z m-211.885349-36.257982c0.64558 0.81014 3.063342 2.502151 7.063408 2.502151h204.821941c4.008505 0 6.430486-1.692011 7.084505-2.50637-0.206754-6.540192-4.751133-20.232401-10.565575-28.764188l-9.118294-13.35887c-4.278552-6.274365-15.915874-12.426365-23.506716-12.426365h-132.597123c-7.595062 0-19.232385 6.147781-23.494058 12.405268l-9.14783 13.392626c-5.797564 8.514908-10.333504 22.211337-10.540258 28.755748z" fill="#6E6E96" /><path d="M350.687848 1007.117865v-27.262053c0-15.004467 18.143759-27.266272 40.308681-27.266272h272.071995c22.169142 0 40.300242 12.261805 40.300242 27.266272v27.262053" fill="#CCCCDE" /><path d="M862.696287 48.777175c0 17.544593-16.282969 31.89926-36.169373 31.89926H218.795378c-19.903282 0-36.173592-14.350447-36.173592-31.89926S198.892097 16.877915 218.795378 16.877915h607.727317c19.886404 0 36.173592 14.350447 36.173592 31.89926z" fill="#EDB0B0" /><path d="M603.071754 880.706499c0-49.536681-43.076659-48.118937-43.076659-104.191591 0-74.608825 36.443639-90.43187 36.443638-90.43187 292.67571-206.843072 230.721102-605.406603 230.721103-605.406603H215.006286s-39.705296 383.499992 238.830941 605.406603c0 0 52.848972 31.65453 36.4352 90.43187-15.084637 54.013548-43.080879 54.654909-43.080879 104.191591h155.880206z" fill="#F7B8B8" /><path d="M215.006286 80.676435h459.096175v33.409834H215.006286z" fill="#D9A1A1" /><path d="M596.611732 686.158989c292.494272-207.117338 230.193667-605.617577 230.193668-605.617577l-155.074286 0.130804s37.671507 406.420201-85.798883 530.13532c0 0-64.047469 51.152742-56.237214 150.572102 0 0 3.371364 33.219957 27.814805 81.579403 11.059254 21.882217 7.582403 37.852945 7.582403 37.852945l38.355063-0.033756c-0.050634-49.54512-43.135732-48.072522-43.182146-104.153615-0.063292-74.604605 36.346591-90.465626 36.34659-90.465626z" fill="#D9A1A1" /><path d="M766.682046 80.676435s82.17857 352.976282-170.247532 605.406603c0 0 298.966953-202.475911 230.079742-605.406603h-59.83221z" fill="#CC9797" /><path d="M447.90464 566.258278C370.645982 427.762325 384.604018 116.34369 384.604018 116.34369H287.804955c2.616077 84.237675 19.169092 300.004945 117.14961 452.155132 41.85723 65.022169 76.039228 115.444941 87.583722 155.175553 9.666826 18.126881 16.489723 28.422409 9.038123 55.097954-15.080417 54.013548-52.119002 54.638031-52.119002 104.178933h41.405746c0-45.021839 27.131249-65.756358 27.131249-140.365183-0.004219-50.477625-70.089763-176.327801-70.089763-176.327801z" fill="#FFFFFF" opacity=".5" /><path d="M706.828739 49.021905c0 17.548812-16.27453 31.907699-36.160934 31.907699H271.690765c-19.899062 0-36.169373-14.350447-36.169373-31.907699 0-17.548812 16.27453-31.903479 36.169373-31.903479h398.97704c19.882184 0.004219 36.160934 14.354667 36.160934 31.903479z" fill="#FCBBBB" /><path d="M490.858934 892.006263v60.583277h-52.751924s-0.780604-48.443836 11.346179-60.583277h41.405745z" fill="#FFFFFF" opacity=".56" /><path d="M565.104884 880.706499v71.883041h88.393862c0.004219 0-8.114058-71.883041-88.393862-71.883041z" fill="#6E6E96" opacity=".15" /><path d="M395.840491 957.441941h95.018443v49.675924H395.840491z" fill="#FFFFFF" opacity=".66" /><path d="M709.41106 984.514117l-13.557186 22.603748h-105.516507V952.58954h76.862026l18.721828 9.936873z" fill="#6E6E96" opacity=".15" /><path d="M720.250901 1023.995781H333.814152v-44.139969c0-24.751463 25.118557-44.144188 57.186596-44.144187h272.071995c32.06382 0 57.178158 19.392725 57.178158 44.144187v44.139969z m-352.680919-33.755831h318.925088v-10.384138c0-3.173048-8.848247-10.388357-23.422327-10.388356h-272.071995c-14.578299 0-23.430766 7.215309-23.430766 10.388356v10.384138zM619.94967 897.584414h-189.636037v-16.877915c0-32.692522 11.080351-48.747639 21.797827-64.271102 7.831353-11.346179 15.932752-23.084769 21.903315-44.460648 12.801899-45.840418-28.435068-71.157291-28.848577-71.41046l-1.848132-1.278502C295.459089 581.482158 236.685969 419.032223 213.423982 303.494454c-25.110119-124.698258-15.620511-220.5395-15.207002-224.560664l1.565427-15.13949h641.829144l2.219446 14.287156c0.6498 4.177284 15.666925 103.79496-5.637224 230.527006-28.367556 168.736958-108.592507 304.030328-232.016482 391.259613l-1.843913 1.303819-0.991577 0.333339c-2.957855 1.670914-26.468791 16.785087-26.468791 75.009675 0 22.759869 8.198447 32.519523 18.582585 44.886816 10.911572 12.987556 24.494075 29.156599 24.494075 59.308994v16.873696z m-154.272585-33.75583h117.748776c-2.894562-7.713207-7.835572-13.607819-13.814574-20.721861-11.801882-14.050864-26.489888-31.540604-26.489888-66.591815 0-34.40985 7.12248-62.249971 21.181784-82.73976 9.325048-13.590941 19.046727-19.869526 23.422327-22.194459 116.706565-82.900101 189.724646-206.556147 217.016235-367.533484 16.021361-94.491009 10.692159-174.914275 7.460038-206.492854H230.770259c-1.569646 31.418239-2.662491 108.465923 15.958069 200.315537 22.194459 109.487037 77.832506 263.211089 216.81792 374.364821 22.215556 13.84411 58.465099 53.384846 42.983831 108.820358-7.489575 26.819007-18.105784 42.199008-26.633351 54.557862-6.683654 9.671045-11.772346 17.042475-14.219643 28.215655z" fill="#6E6E96" /><path d="M285.125586 21.396977h94.955151v49.734997H285.125586z" fill="#FFFFFF" opacity=".62" /><path d="M425.300892 16.877915h45.211715v54.254059h-45.211715z" fill="#FFFFFF" opacity=".34" /><path d="M462.225551 114.090488s-12.122563 280.667073 18.088906 397.158445c32.274794 124.466186 36.342371 217.547889 36.342371 217.547889s-38.300209-156.719883-63.469401-232.628307c-37.612434-113.411152-27.127029-382.078027-27.127029-382.078027h36.165153z" fill="#D9A1A1" opacity=".44" /><path d="M739.546577 1023.995781H323.430014a16.877915 16.877915 0 0 1 0-33.755831h416.116563a16.877915 16.877915 0 0 1 0 33.755831z" fill="#6E6E96" /><path d="M628.017313 114.090488s54.465033 340.089994-52.654876 507.282623c0 0 135.787048-123.715119 98.731585-507.299501l-46.076709 0.016878zM626.50252 19.135336h45.220155V80.676435h-45.220155z" fill="#F7C6C6" /><path d="M468.993595 476.201942v129.993703l47.097823-47.1147 44.85306 44.861499v-129.647707z" fill="#D9A1A1" /><path d="M513.690534 355.967892m-129.651926 0a129.651926 129.651926 0 1 0 259.303852 0 129.651926 129.651926 0 1 0-259.303852 0Z" fill="#D9A1A1" /><path d="M472.478884 412.74098l0.438826 150.534127 45.072473-45.532396 45.523957 45.059814-0.438826-150.517249" fill="#FF9999" /><path d="M472.913491 580.153022a16.869476 16.869476 0 0 1-16.873696-16.827282l-0.438826-150.534126a16.877915 16.877915 0 0 1 16.827282-16.928549h0.050633a16.877915 16.877915 0 0 1 16.877916 16.827281l0.32068 109.660036 16.316725-16.485504a16.877915 16.877915 0 0 1 23.869592-0.122365l16.654282 16.485504-0.32068-109.900546a16.877915 16.877915 0 0 1 16.827282-16.928549h0.050633a16.877915 16.877915 0 0 1 16.877916 16.827282l0.438826 150.517248a16.882135 16.882135 0 0 1-28.74731 12.042393l-33.532198-33.186201-33.198859 33.540637a16.852598 16.852598 0 0 1-12.000198 5.012741z" fill="#6E6E96" /><path d="M640.236924 322.351305c0 68.617165-55.642267 124.229896-124.246774 124.229895-68.608726 0-124.242554-55.61695-124.242554-124.229895 0-68.621384 55.638048-124.234115 124.242554-124.234116 68.612945-0.008439 124.246774 55.612731 124.246774 124.234116z" fill="#FFD28F" /><path d="M411.975778 328.815546c0-60.64235 49.161148-109.795059 109.795058-109.795058 26.55318 0 56.701356 9.426316 75.689011 25.126996-20.131133-24.380149-56.384896-39.91627-90.469845-39.91627-60.633911 0-109.795059 49.14005-109.795059 109.795059 0 34.076511 15.523463 68.401971 39.899392 88.524666-15.692242-18.970777-25.118557-47.182212-25.118557-73.735393z" fill="#FFFFFF" opacity=".75" /><path d="M540.193081 200.484317c47.692769 13.472796 82.668029 57.296303 82.668029 109.314038 0 62.74787-50.865817 113.617906-113.622126 113.617906-62.74365 0-113.626345-50.878476-113.626345-113.617906 0-11.797663 1.793279-23.160719 5.130886-33.848659a123.769972 123.769972 0 0 0-9.000148 46.397389c0 68.617165 55.638048 124.229896 124.246773 124.229896 68.612945 0 124.242554-55.61695 124.242554-124.229896 0.004219-60.334328-43.000709-110.59676-100.039623-121.862768z" fill="#E8B76D" opacity=".76" /><path d="M481.01911 335.832539c0-21.975046 18.325197-39.777027 40.928944-39.777026 8.780735 0 16.877915 2.692027 23.553131 7.261723-6.924165-12.443243-20.451814-20.88642-36.03013-20.886421-22.607968 0-40.933164 17.81042-40.933164 39.768588 0 13.447479 6.869312 25.316873 17.371595 32.523743a38.890936 38.890936 0 0 1-4.890376-18.890607z" fill="#8B5C29" opacity=".15" /><path d="M511.070238 364.638921c-22.523578 0-40.852994-18.316758-40.852994-40.844555a40.566069 40.566069 0 0 1 11.966442-28.882332 40.56185 40.56185 0 0 1 28.882332-11.966442 40.515436 40.515436 0 0 1 28.869675 11.966442 40.506997 40.506997 0 0 1 11.966441 28.882332 9.645729 9.645729 0 0 0 9.658388 9.654168 9.641509 9.641509 0 0 0 9.641509-9.654168c0-16.067775-6.253268-31.17351-17.607886-42.536566a59.75204 59.75204 0 0 0-42.536566-17.620543c-16.076214 0-31.181949 6.253268-42.536566 17.620543a59.768918 59.768918 0 0 0-17.620543 42.536566c0 33.177762 26.983567 60.144451 60.161329 60.144452a9.645729 9.645729 0 0 0 9.654167-9.654168 9.641509 9.641509 0 0 0-9.645728-9.645729z" fill="#6E6E96" /><path d="M539.901937 411.264162a16.882135 16.882135 0 0 1-3.957871-33.287468c22.793625-5.519078 34.118706-32.553279 34.228412-32.827545a16.911671 16.911671 0 0 1 21.958168-9.282854 16.83994 16.83994 0 0 1 9.371462 21.852681c-0.704653 1.767962-17.704933 43.405779-57.621203 53.064166a16.763989 16.763989 0 0 1-3.978968 0.48102z" fill="#FFFFFF" opacity=".73" /><path d="M469.040009 454.640405c1.805937 0.919846 44.84884 22.439188 97.250548 0.24473l-6.130902-14.506569c-45.713834 19.35053-83.55412 0.438826-83.938093 0.24473l-7.181553 14.017109z" fill="#6E6E96" opacity=".2" /><path d="M515.99015 463.463335c-77.815629 0-141.120469-63.300621-141.120469-141.107811 0-77.811409 63.304841-141.11203 141.120469-141.11203 77.824068 0 141.124689 63.300621 141.124689 141.11203 0 77.80719-63.30906 141.107811-141.124689 141.107811z m0.016878-248.46823c-59.216166 0-107.381517 48.161131-107.381517 107.3562 0 59.195068 48.165351 107.35198 107.364639 107.35198s107.368858-48.161131 107.368858-107.35198c0-59.195068-48.156912-107.3562-107.35198-107.3562z" fill="#6E6E96" /><path d="M311.467792 116.347909s5.890392 310.064182 84.946548 438.386973c0 0-94.693544-135.175224-108.617824-438.386973h23.671276zM285.125586 21.396977h19.629015v49.734997H285.125586z" fill="#FFFFFF" /><path d="M826.522695 97.554351H218.795378c-29.253647 0-53.051507-21.882217-53.051507-48.777176C165.743871 21.882217 189.541732 0 218.795378 0h607.727317c29.253647 0 53.047288 21.882217 53.047287 48.781395 0.004219 26.890739-23.793641 48.772956-53.047287 48.772956zM218.795378 33.755831c-10.460088 0-19.295677 6.87775-19.295676 15.025564 0 8.143594 8.835589 15.021345 19.295676 15.021344h607.727317c10.460088 0 19.291457-6.87775 19.291457-15.021344 0-8.143594-8.835589-15.025564-19.291457-15.025564H218.795378z" fill="#6E6E96" /></svg>