<?xml version="1.0" standalone="no"?><!DOCTYPE svg PUBLIC "-//W3C//DTD SVG 1.1//EN" "http://www.w3.org/Graphics/SVG/1.1/DTD/svg11.dtd"><svg class="icon" width="200px" height="200.00px" viewBox="0 0 1024 1024" version="1.1" xmlns="http://www.w3.org/2000/svg"><path d="M284.624421 84.136112c-64.745136 0-125.751641-11.215893-174.239653-31.634569C59.219659 108.50065 33.941609 183.725795 33.941609 282.389278c0 318.72674 180.350877 586.301059 482.883932 717.825586 158.697268-70.864818 280.312731-164.723907 361.386886-279.208904 85.434482-120.638513 128.758616-268.217161 128.758617-438.620911 0-98.244791-25.71366-173.283849-77.79651-229.329479-48.276551 20.059193-108.817842 31.076312-172.90322 31.076312-100.03798 0-188.445605-26.424169-235.82979-68.855938-47.367269 42.435998-135.757976 68.860167-235.817103 68.860168z" fill="#9CD0FF" /><path d="M28.07568 235.013551h971.638022v44.677485H28.07568z" fill="#FFFFFF" opacity=".25" /><path d="M286.396465 79.564324c-65.108849 0-126.364878-11.397749-174.810598-32.099783C69.475519 93.254311 44.273594 153.863269 36.534121 228.145297h971.316601c-7.895955-73.918315-33.533489-134.3285-76.328971-180.105582-48.242718 20.329863-109.037761 31.524609-173.469935 31.524609-100.537028 0-189.219552-26.703298-235.838249-69.515696-46.580634 42.812399-135.263157 69.515696-235.817102 69.515696z" fill="#FFE38F" /><path d="M28.07568 182.385132h967.08738v52.628419H28.07568z" fill="#FF7F00" opacity=".24" /><path d="M103.127426 110.902848c48.44572 20.702034 109.701749 32.099783 174.810598 32.099783 100.549716 0 189.23224-26.699069 235.825561-69.515697 46.610239 42.812399 135.292762 69.515696 235.82979 69.515697 64.427944 0 125.222988-11.190517 173.474164-31.52038 30.737974 32.873731 52.56921 73.338912 65.387978 120.896496h10.945222c-7.904413-73.922544-33.537718-134.332729-76.3332-180.105582-48.238488 20.329863-109.033532 31.524609-173.474164 31.524609-100.532799 0-189.215323-26.699069-235.82979-69.515697C467.170263 57.094476 378.491969 83.797774 277.938024 83.797774c-65.108849 0-126.364878-11.397749-174.810598-32.099783C61.017078 97.483531 35.815153 158.092489 28.07568 232.374517h10.670323c12.58616-47.866317 34.083288-88.526042 64.381423-121.471669z" fill="#FFF2CC" /><path d="M508.3671 1024c-2.296467 0-4.592933-0.465214-6.745607-1.404101C192.888401 888.381588 8.566286 614.23506 8.566286 289.257532c0-102.812349 26.453774-181.74229 80.871153-241.298172a16.916882 16.916882 0 0 1 19.052638-4.17847c46.411465 19.547457 105.958889 30.310823 167.671674 30.310823 94.053633 0 180.092894-24.732481 224.537772-64.546362a16.916882 16.916882 0 0 1 22.571349 0c44.457565 39.813881 130.492597 64.542133 224.542002 64.542133 61.091089 0 120.190216-10.57728 166.411366-29.782171a16.904194 16.904194 0 0 1 18.883469 4.106573c55.394329 59.606633 82.321776 138.388551 82.321776 240.845646 0 173.973212-44.368752 324.837964-131.871323 448.403098-82.757386 116.85759-206.673545 212.704413-368.297433 284.871831a16.916882 16.916882 0 0 1-6.893629 1.467539zM106.785702 79.53472C63.478484 131.600653 42.40005 200.35086 42.40005 289.257532c0 308.695029 173.990129 569.582951 465.886694 699.310059 152.679087-69.291548 269.617033-160.25785 347.663067-270.462876 83.374852-117.737268 125.650139-262.021353 125.650139-428.851412 0-88.568335-21.501357-157.16629-65.667105-209.253369-48.724849 18.291378-106.538292 27.917084-168.111513 27.917084-96.3501 0-183.019515-23.675176-235.825561-63.865458-52.797588 40.194511-139.467003 63.869687-235.825561 63.869687-62.17377 0-120.427052-9.786416-169.384508-28.386527z" fill="#6E6E96" /><path d="M995.243416 251.930433H28.07568a16.904194 16.904194 0 0 1-16.823839-18.667779c8.111645-77.838802 34.83186-141.890346 79.42476-190.378359a16.929569 16.929569 0 0 1 19.099159-4.106573c46.38609 19.822356 106.106912 30.737974 168.162264 30.737974 94.734538 0 180.71036-24.927025 224.377061-65.053868a16.908423 16.908423 0 0 1 22.888541 0c43.692076 40.126844 129.676357 65.058098 224.393979 65.058098 61.416739 0 120.689264-10.725303 166.897726-30.196634a16.916882 16.916882 0 0 1 18.929991 4.038905c42.457144 45.413369 67.447608 106.965443 76.379721 188.132642a16.92534 16.92534 0 0 1-16.561627 20.435594z m-947.967075-33.833764H976.000463c-8.771403-60.905004-27.367285-106.98236-57.695026-143.06184-48.77137 18.549361-106.800504 28.314631-168.716291 28.314631-96.942191 0-183.569313-23.844345-235.83402-64.330672-52.230872 40.490557-138.853766 64.330672-235.817102 64.330672-62.541712 0-121.014914-9.938668-170.018891-28.817908-31.617652 37.914961-51.960202 86.090011-60.642792 143.565117zM490.075721 738.240033c-7.646431 0-12.983707-0.372171-14.899543-0.528653a29.604543 29.604543 0 1 1 4.833999-59.010312c15.884952 1.226474 62.144165-0.097272 84.309509-20.630138 8.636068-8.001685 12.658057-18.270232 12.658057-32.336619 0-19.276787-7.248884-28.082024-12.700349-33.030212-20.740097-18.820031-62.888508-19.281016-77.382047-17.872685a29.701815 29.701815 0 0 1-22.808185-7.536471 29.634148 29.634148 0 0 1-9.756812-21.92005v-131.105834a29.604543 29.604543 0 0 1 29.604543-29.604543h109.959732a29.604543 29.604543 0 1 1 0 59.209086h-80.355189v71.710662c26.517212 1.708605 63.467911 8.864446 90.302315 33.064046 21.163019 19.086472 32.345078 45.73479 32.345078 77.081772 0 30.505367-11.008661 56.768826-31.829113 75.956799-34.93759 32.197055-88.10735 36.553152-114.281995 36.553152z" fill="#6E6E96" /><path d="M871.213068 645.023785c-81.074156 114.47231-202.693848 208.339858-361.391117 279.204676C223.051201 799.555271 63.01327 578.007558 45.343587 281.162804c-0.964262 12.717266-22.639017 0.448297-22.639017 14.045241 0 318.72674 184.580097 586.305289 487.113152 717.825586 158.693039-70.869047 280.31696-164.723907 361.391116-279.208904 85.434482-120.638513 128.750158-268.22139 128.750158-438.62514 0-12.928727-0.469443-25.430303-1.361809-37.563936-7.895955 148.877018-50.632227 279.005902-127.384119 387.388134z" fill="#6E6E96" opacity=".25" /></svg>