<?xml version="1.0" standalone="no"?><!DOCTYPE svg PUBLIC "-//W3C//DTD SVG 1.1//EN" "http://www.w3.org/Graphics/SVG/1.1/DTD/svg11.dtd"><svg class="icon" width="200px" height="200.00px" viewBox="0 0 1024 1024" version="1.1" xmlns="http://www.w3.org/2000/svg"><path d="M94.68491 47.04218h884.012478v797.364736H94.68491z" fill="#FF7A7A" /><path d="M150.562716 384.665458h728.540942v46.443783H150.562716zM165.960064 47.04218h713.143594v42.911183H165.960064z" fill="#FFFFFF" opacity=".25" /><path d="M134.876487 132.905815h771.489268V384.665458H134.876487z" fill="#9C9CAD" /><path d="M906.369882 401.172934H134.876487a16.507476 16.507476 0 0 1-16.507476-16.507476V132.905815a16.507476 16.507476 0 0 1 16.507476-16.507475H906.369882a16.507476 16.507476 0 0 1 16.507476 16.507475V384.665458a16.507476 16.507476 0 0 1-16.507476 16.507476z m-754.985919-33.014952H889.862406V149.413291H151.383963V368.157982z" fill="#6E6E96" /><path d="M978.697388 860.914392H94.68491a16.507476 16.507476 0 0 1-16.507476-16.507476V47.04218a16.507476 16.507476 0 0 1 16.507476-16.507476h884.012478a16.507476 16.507476 0 0 1 16.507475 16.507476v797.364736a16.507476 16.507476 0 0 1-16.507475 16.507476z m-867.505002-33.014952h850.997526V63.549655H111.192386v764.349785z" fill="#6E6E96" /><path d="M346.712799 498.41022h362.116245v212.66994H346.712799z" fill="#FFFFFF" /><path d="M708.829044 727.587636H346.712799a16.507476 16.507476 0 0 1-16.507476-16.507476v-212.66994a16.507476 16.507476 0 0 1 16.507476-16.507475h362.116245a16.507476 16.507476 0 0 1 16.507476 16.507475v212.66994a16.507476 16.507476 0 0 1-16.507476 16.507476z m-345.608769-33.014952h329.101293v-179.654988H363.220275v179.654988z" fill="#6E6E96" /><path d="M39.27344 16.507476h111.289276v990.972667H39.27344zM879.103658 16.507476h105.618958v990.980921h-105.618958z" fill="#FF7A7A" /><path d="M39.27344 16.507476h111.289276v45.932052H39.27344z" fill="#FFFFFF" opacity=".25" /><path d="M405.178152 560.379285h161.35645v33.014952H405.178152zM405.178152 624.304486h114.124434v33.014951H405.178152z" fill="#6E6E96" opacity=".32" /><path d="M150.562716 1023.987619H39.27344a16.507476 16.507476 0 0 1-16.507476-16.507476V16.507476a16.507476 16.507476 0 0 1 16.507476-16.507476h111.289276a16.507476 16.507476 0 0 1 16.507476 16.507476v990.972667a16.507476 16.507476 0 0 1-16.507476 16.507476z m-94.7818-33.014951h78.274324V33.014952H55.780916v957.957716z" fill="#6E6E96" /><path d="M879.103658 16.507476h105.618958v45.932052h-105.618958z" fill="#FFFFFF" opacity=".25" /><path d="M984.722616 1023.995873h-105.618958a16.507476 16.507476 0 0 1-16.507475-16.507476V16.507476a16.507476 16.507476 0 0 1 16.507475-16.507476h105.618958a16.507476 16.507476 0 0 1 16.507476 16.507476v990.980921a16.507476 16.507476 0 0 1-16.507476 16.507476z m-89.111482-33.014952h72.604006V33.014952h-72.604006v957.965969z" fill="#6E6E96" /><path d="M150.562716 783.267352h728.540942v61.13131H150.562716zM39.27344 948.342111h111.289276v59.138032H39.27344zM879.103658 948.342111h105.618958v59.146286h-105.618958z" fill="#6E6E96" opacity=".2" /><path d="M150.562716 132.905815h712.508056v58.845025H150.562716z" fill="#6E6E96" opacity=".25" /><path d="M941.786671 62.439528h42.931818v885.902583h-42.931818z" fill="#6E6E96" opacity=".2" /><path d="M107.296622 62.439528h55.642574v885.902583H107.296622z" fill="#6E6E96" opacity=".2" /></svg>